<svg xmlns="http://www.w3.org/2000/svg" fill="none" viewBox="7 15 120 120">
<g filter="url(#filter0_iiii_1433_434)">
<circle cx="67" cy="75" r="60" fill="url(#paint0_linear_1433_434)"/>
</g>
<g filter="url(#filter1_f_1433_434)">
<ellipse rx="27.4132" ry="25.7687" transform="matrix(0.406221 0.913775 -0.902975 0.429694 70.4845 72.1222)" fill="url(#paint1_radial_1433_434)" fill-opacity="0.5"/>
</g>
<ellipse cx="67.3824" cy="84.4916" rx="20.3824" ry="20.9077" fill="url(#paint2_linear_1433_434)"/>
<ellipse cx="67.3824" cy="84.4916" rx="20.3824" ry="20.9077" fill="url(#paint3_radial_1433_434)"/>
<ellipse cx="67.3824" cy="84.4916" rx="20.3824" ry="20.9077" fill="url(#paint4_radial_1433_434)"/>
<path d="M79.9156 57.9104C79.9156 50.7802 74.2806 45 67.3296 45C60.3786 45 54.7437 50.7802 54.7437 57.9104" stroke="url(#paint5_linear_1433_434)" stroke-width="3.09744" stroke-linecap="round"/>
<circle cx="66.5" cy="74.5" r="46.5" stroke="url(#paint6_linear_1433_434)" stroke-width="2"/>
<rect x="18" y="61" width="6" height="17" fill="#161616"/>
<rect x="115" y="83" width="5" height="16" transform="rotate(-180 115 83)" fill="#1E1E1E"/>
<g filter="url(#filter2_ii_1433_434)">
<path d="M20.93 68.5948L29.3253 76.6767C29.8757 77.2066 29.4982 78.1252 28.727 78.1326L12.0902 78.2921C11.3189 78.2995 10.9239 77.3882 11.4642 76.8479L19.7057 68.6064C20.0406 68.2715 20.5887 68.2663 20.93 68.5948Z" fill="url(#paint7_linear_1433_434)"/>
<path d="M20.93 68.5948L29.3253 76.6767C29.8757 77.2066 29.4982 78.1252 28.727 78.1326L12.0902 78.2921C11.3189 78.2995 10.9239 77.3882 11.4642 76.8479L19.7057 68.6064C20.0406 68.2715 20.5887 68.2663 20.93 68.5948Z" fill="url(#paint8_radial_1433_434)"/>
<path d="M20.93 68.5948L29.3253 76.6767C29.8757 77.2066 29.4982 78.1252 28.727 78.1326L12.0902 78.2921C11.3189 78.2995 10.9239 77.3882 11.4642 76.8479L19.7057 68.6064C20.0406 68.2715 20.5887 68.2663 20.93 68.5948Z" fill="url(#paint9_radial_1433_434)"/>
<path d="M20.93 68.5948L29.3253 76.6767C29.8757 77.2066 29.4982 78.1252 28.727 78.1326L12.0902 78.2921C11.3189 78.2995 10.9239 77.3882 11.4642 76.8479L19.7057 68.6064C20.0406 68.2715 20.5887 68.2663 20.93 68.5948Z" fill="url(#paint10_radial_1433_434)" fill-opacity="0.5"/>
</g>
<g filter="url(#filter3_ii_1433_434)">
<path d="M111.887 75.8299L103.491 67.7479C102.941 67.2181 103.319 66.2995 104.09 66.2921L120.727 66.1326C121.498 66.1252 121.893 67.0365 121.353 67.5768L113.111 75.8182C112.776 76.1531 112.228 76.1584 111.887 75.8299Z" fill="url(#paint11_linear_1433_434)"/>
<path d="M111.887 75.8299L103.491 67.7479C102.941 67.2181 103.319 66.2995 104.09 66.2921L120.727 66.1326C121.498 66.1252 121.893 67.0365 121.353 67.5768L113.111 75.8182C112.776 76.1531 112.228 76.1584 111.887 75.8299Z" fill="url(#paint12_radial_1433_434)"/>
<path d="M111.887 75.8299L103.491 67.7479C102.941 67.2181 103.319 66.2995 104.09 66.2921L120.727 66.1326C121.498 66.1252 121.893 67.0365 121.353 67.5768L113.111 75.8182C112.776 76.1531 112.228 76.1584 111.887 75.8299Z" fill="url(#paint13_radial_1433_434)"/>
<path d="M111.887 75.8299L103.491 67.7479C102.941 67.2181 103.319 66.2995 104.09 66.2921L120.727 66.1326C121.498 66.1252 121.893 67.0365 121.353 67.5768L113.111 75.8182C112.776 76.1531 112.228 76.1584 111.887 75.8299Z" fill="url(#paint14_radial_1433_434)" fill-opacity="0.5"/>
</g>
<defs>
<filter id="filter0_iiii_1433_434" x="-44" y="10" width="176" height="174" filterUnits="userSpaceOnUse" color-interpolation-filters="sRGB">
<feFlood flood-opacity="0" result="BackgroundImageFix"/>
<feBlend mode="normal" in="SourceGraphic" in2="BackgroundImageFix" result="shape"/>
<feColorMatrix in="SourceAlpha" type="matrix" values="0 0 0 0 0 0 0 0 0 0 0 0 0 0 0 0 0 0 127 0" result="hardAlpha"/>
<feMorphology radius="22" operator="erode" in="SourceAlpha" result="effect1_innerShadow_1433_434"/>
<feOffset dx="-97" dy="49"/>
<feGaussianBlur stdDeviation="14.5"/>
<feComposite in2="hardAlpha" operator="arithmetic" k2="-1" k3="1"/>
<feColorMatrix type="matrix" values="0 0 0 0 0.108333 0 0 0 0 0.108333 0 0 0 0 0.108333 0 0 0 0.72 0"/>
<feBlend mode="normal" in2="shape" result="effect1_innerShadow_1433_434"/>
<feColorMatrix in="SourceAlpha" type="matrix" values="0 0 0 0 0 0 0 0 0 0 0 0 0 0 0 0 0 0 127 0" result="hardAlpha"/>
<feMorphology radius="28" operator="dilate" in="SourceAlpha" result="effect2_innerShadow_1433_434"/>
<feOffset dx="-10" dy="-26"/>
<feGaussianBlur stdDeviation="16.5"/>
<feComposite in2="hardAlpha" operator="arithmetic" k2="-1" k3="1"/>
<feColorMatrix type="matrix" values="0 0 0 0 1 0 0 0 0 1 0 0 0 0 1 0 0 0 0.1 0"/>
<feBlend mode="normal" in2="effect1_innerShadow_1433_434" result="effect2_innerShadow_1433_434"/>
<feColorMatrix in="SourceAlpha" type="matrix" values="0 0 0 0 0 0 0 0 0 0 0 0 0 0 0 0 0 0 127 0" result="hardAlpha"/>
<feOffset dx="5" dy="5"/>
<feGaussianBlur stdDeviation="2.5"/>
<feComposite in2="hardAlpha" operator="arithmetic" k2="-1" k3="1"/>
<feColorMatrix type="matrix" values="0 0 0 0 0 0 0 0 0 0 0 0 0 0 0 0 0 0 0.21 0"/>
<feBlend mode="normal" in2="effect2_innerShadow_1433_434" result="effect3_innerShadow_1433_434"/>
<feColorMatrix in="SourceAlpha" type="matrix" values="0 0 0 0 0 0 0 0 0 0 0 0 0 0 0 0 0 0 127 0" result="hardAlpha"/>
<feOffset dx="-2" dy="-2"/>
<feGaussianBlur stdDeviation="2"/>
<feComposite in2="hardAlpha" operator="arithmetic" k2="-1" k3="1"/>
<feColorMatrix type="matrix" values="0 0 0 0 0.3125 0 0 0 0 0.3125 0 0 0 0 0.3125 0 0 0 0.1 0"/>
<feBlend mode="normal" in2="effect3_innerShadow_1433_434" result="effect4_innerShadow_1433_434"/>
</filter>
<filter id="filter1_f_1433_434" x="0.682739" y="0.727661" width="139.604" height="142.789" filterUnits="userSpaceOnUse" color-interpolation-filters="sRGB">
<feFlood flood-opacity="0" result="BackgroundImageFix"/>
<feBlend mode="normal" in="SourceGraphic" in2="BackgroundImageFix" result="shape"/>
<feGaussianBlur stdDeviation="22" result="effect1_foregroundBlur_1433_434"/>
</filter>
<filter id="filter2_ii_1433_434" x="11.2146" y="66.3506" width="18.3717" height="11.9415" filterUnits="userSpaceOnUse" color-interpolation-filters="sRGB">
<feFlood flood-opacity="0" result="BackgroundImageFix"/>
<feBlend mode="normal" in="SourceGraphic" in2="BackgroundImageFix" result="shape"/>
<feColorMatrix in="SourceAlpha" type="matrix" values="0 0 0 0 0 0 0 0 0 0 0 0 0 0 0 0 0 0 127 0" result="hardAlpha"/>
<feOffset dy="-2.00115"/>
<feGaussianBlur stdDeviation="9.43399"/>
<feComposite in2="hardAlpha" operator="arithmetic" k2="-1" k3="1"/>
<feColorMatrix type="matrix" values="0 0 0 0 1 0 0 0 0 1 0 0 0 0 1 0 0 0 0.37 0"/>
<feBlend mode="normal" in2="shape" result="effect1_innerShadow_1433_434"/>
<feColorMatrix in="SourceAlpha" type="matrix" values="0 0 0 0 0 0 0 0 0 0 0 0 0 0 0 0 0 0 127 0" result="hardAlpha"/>
<feOffset dy="-2.00115"/>
<feGaussianBlur stdDeviation="9.43399"/>
<feComposite in2="hardAlpha" operator="arithmetic" k2="-1" k3="1"/>
<feColorMatrix type="matrix" values="0 0 0 0 1 0 0 0 0 1 0 0 0 0 1 0 0 0 0.37 0"/>
<feBlend mode="normal" in2="effect1_innerShadow_1433_434" result="effect2_innerShadow_1433_434"/>
</filter>
<filter id="filter3_ii_1433_434" x="103.23" y="64.1314" width="18.3717" height="11.9415" filterUnits="userSpaceOnUse" color-interpolation-filters="sRGB">
<feFlood flood-opacity="0" result="BackgroundImageFix"/>
<feBlend mode="normal" in="SourceGraphic" in2="BackgroundImageFix" result="shape"/>
<feColorMatrix in="SourceAlpha" type="matrix" values="0 0 0 0 0 0 0 0 0 0 0 0 0 0 0 0 0 0 127 0" result="hardAlpha"/>
<feOffset dy="-2.00115"/>
<feGaussianBlur stdDeviation="9.43399"/>
<feComposite in2="hardAlpha" operator="arithmetic" k2="-1" k3="1"/>
<feColorMatrix type="matrix" values="0 0 0 0 1 0 0 0 0 1 0 0 0 0 1 0 0 0 0.37 0"/>
<feBlend mode="normal" in2="shape" result="effect1_innerShadow_1433_434"/>
<feColorMatrix in="SourceAlpha" type="matrix" values="0 0 0 0 0 0 0 0 0 0 0 0 0 0 0 0 0 0 127 0" result="hardAlpha"/>
<feOffset dy="-2.00115"/>
<feGaussianBlur stdDeviation="9.43399"/>
<feComposite in2="hardAlpha" operator="arithmetic" k2="-1" k3="1"/>
<feColorMatrix type="matrix" values="0 0 0 0 1 0 0 0 0 1 0 0 0 0 1 0 0 0 0.37 0"/>
<feBlend mode="normal" in2="effect1_innerShadow_1433_434" result="effect2_innerShadow_1433_434"/>
</filter>
<linearGradient id="paint0_linear_1433_434" x1="7.00001" y1="5.16393" x2="167.918" y2="197.818" gradientUnits="userSpaceOnUse">
<stop/>
<stop offset="1"/>
</linearGradient>
<radialGradient id="paint1_radial_1433_434" cx="0" cy="0" r="1" gradientUnits="userSpaceOnUse" gradientTransform="translate(27.4132 25.7687) rotate(144.127) scale(50.8343 52.5403)">
<stop stop-color="white"/>
<stop offset="1" stop-color="#8C8C8C" stop-opacity="0"/>
</radialGradient>
<linearGradient id="paint2_linear_1433_434" x1="84.4773" y1="110.345" x2="47.0203" y2="55.0182" gradientUnits="userSpaceOnUse">
<stop stop-color="#3E3E3E"/>
<stop offset="1" stop-color="#0D0D0D"/>
</linearGradient>
<radialGradient id="paint3_radial_1433_434" cx="0" cy="0" r="1" gradientUnits="userSpaceOnUse" gradientTransform="translate(72.4232 75.4991) rotate(131.785) scale(18.0901 18.0444)">
<stop offset="0.135417" stop-color="white"/>
<stop offset="1" stop-color="white" stop-opacity="0.27"/>
</radialGradient>
<radialGradient id="paint4_radial_1433_434" cx="0" cy="0" r="1" gradientUnits="userSpaceOnUse" gradientTransform="translate(73.0807 75.4991) rotate(140.778) scale(26.3098 26.4525)">
<stop stop-color="white"/>
<stop offset="0.338542" stop-color="white"/>
<stop offset="1" stop-color="white" stop-opacity="0"/>
</radialGradient>
<linearGradient id="paint5_linear_1433_434" x1="77.5289" y1="51.4552" x2="57.0838" y2="48.1004" gradientUnits="userSpaceOnUse">
<stop stop-color="#EBEBEB"/>
<stop offset="1" stop-color="#C0C0C0"/>
</linearGradient>
<linearGradient id="paint6_linear_1433_434" x1="66.5" y1="27" x2="66.5" y2="122" gradientUnits="userSpaceOnUse">
<stop stop-color="#C0C0C0"/>
<stop offset="1" stop-color="#EBEBEB"/>
</linearGradient>
<linearGradient id="paint7_linear_1433_434" x1="18.238" y1="67.6355" x2="23.0424" y2="90.4107" gradientUnits="userSpaceOnUse">
<stop stop-color="#3E3E3E"/>
<stop offset="1" stop-color="#0D0D0D"/>
</linearGradient>
<radialGradient id="paint8_radial_1433_434" cx="0" cy="0" r="1" gradientUnits="userSpaceOnUse" gradientTransform="translate(23.9426 79.1119) rotate(-178.107) scale(6.4414 6.32059)">
<stop offset="0.135417" stop-color="white"/>
<stop offset="1" stop-color="white" stop-opacity="0.27"/>
</radialGradient>
<radialGradient id="paint9_radial_1433_434" cx="0" cy="0" r="1" gradientUnits="userSpaceOnUse" gradientTransform="translate(24.1089 78.9456) rotate(173.081) scale(9.40382 9.23073)">
<stop stop-color="white"/>
<stop offset="0.338542" stop-color="white"/>
<stop offset="1" stop-color="white" stop-opacity="0"/>
</radialGradient>
<radialGradient id="paint10_radial_1433_434" cx="0" cy="0" r="1" gradientUnits="userSpaceOnUse" gradientTransform="translate(16.1667 72.0656) rotate(49.4121) scale(8.08129 8.09244)">
<stop stop-color="#747474"/>
<stop offset="1" stop-opacity="0"/>
</radialGradient>
<linearGradient id="paint11_linear_1433_434" x1="114.579" y1="76.7891" x2="109.774" y2="54.014" gradientUnits="userSpaceOnUse">
<stop stop-color="#3E3E3E"/>
<stop offset="1" stop-color="#0D0D0D"/>
</linearGradient>
<radialGradient id="paint12_radial_1433_434" cx="0" cy="0" r="1" gradientUnits="userSpaceOnUse" gradientTransform="translate(108.874 65.3128) rotate(1.89332) scale(6.4414 6.32059)">
<stop offset="0.135417" stop-color="white"/>
<stop offset="1" stop-color="white" stop-opacity="0.27"/>
</radialGradient>
<radialGradient id="paint13_radial_1433_434" cx="0" cy="0" r="1" gradientUnits="userSpaceOnUse" gradientTransform="translate(108.708 65.4791) rotate(-6.9188) scale(9.40382 9.23073)">
<stop stop-color="white"/>
<stop offset="0.338542" stop-color="white"/>
<stop offset="1" stop-color="white" stop-opacity="0"/>
</radialGradient>
<radialGradient id="paint14_radial_1433_434" cx="0" cy="0" r="1" gradientUnits="userSpaceOnUse" gradientTransform="translate(116.65 72.3591) rotate(-130.588) scale(8.08129 8.09244)">
<stop stop-color="#747474"/>
<stop offset="1" stop-opacity="0"/>
</radialGradient>
</defs>
</svg>