<svg xmlns="http://www.w3.org/2000/svg" fill="none" viewBox="7 15 120 120">
<g filter="url(#filter0_iiii_1433_445)">
<circle cx="67" cy="75" r="60" fill="url(#paint0_linear_1433_445)"/>
</g>
<g filter="url(#filter1_f_1433_445)">
<ellipse rx="27.4132" ry="25.7687" transform="matrix(0.406221 0.913775 -0.902975 0.429694 70.4845 72.1222)" fill="url(#paint1_radial_1433_445)" fill-opacity="0.5"/>
</g>
<path d="M90 59.5C90 64.7467 79.9264 69 67.5 69C55.0736 69 45 64.7467 45 59.5C45 54.2533 55.0736 50 67.5 50C79.9264 50 90 54.2533 90 59.5Z" fill="url(#paint2_linear_1433_445)"/>
<path d="M90 59.5C90 64.7467 79.9264 69 67.5 69C55.0736 69 45 64.7467 45 59.5C45 54.2533 55.0736 50 67.5 50C79.9264 50 90 54.2533 90 59.5Z" fill="url(#paint3_radial_1433_445)"/>
<path d="M90 59.5C90 64.7467 79.9264 69 67.5 69C55.0736 69 45 64.7467 45 59.5C45 54.2533 55.0736 50 67.5 50C79.9264 50 90 54.2533 90 59.5Z" fill="url(#paint4_radial_1433_445)"/>
<path d="M47 71C47 75.4183 56.1782 79 67.5 79C78.8218 79 88 75.4183 88 71" stroke="url(#paint5_linear_1433_445)" stroke-width="3" stroke-linecap="round"/>
<path d="M47 81C47 85.4183 56.1782 89 67.5 89C78.8218 89 88 85.4183 88 81" stroke="url(#paint6_linear_1433_445)" stroke-width="3" stroke-linecap="round"/>
<path d="M47 92C47 96.4183 56.1782 100 67.5 100C78.8218 100 88 96.4183 88 92" stroke="url(#paint7_linear_1433_445)" stroke-width="3" stroke-linecap="round"/>
<defs>
<filter id="filter0_iiii_1433_445" x="-44" y="10" width="176" height="174" filterUnits="userSpaceOnUse" color-interpolation-filters="sRGB">
<feFlood flood-opacity="0" result="BackgroundImageFix"/>
<feBlend mode="normal" in="SourceGraphic" in2="BackgroundImageFix" result="shape"/>
<feColorMatrix in="SourceAlpha" type="matrix" values="0 0 0 0 0 0 0 0 0 0 0 0 0 0 0 0 0 0 127 0" result="hardAlpha"/>
<feMorphology radius="22" operator="erode" in="SourceAlpha" result="effect1_innerShadow_1433_445"/>
<feOffset dx="-97" dy="49"/>
<feGaussianBlur stdDeviation="14.5"/>
<feComposite in2="hardAlpha" operator="arithmetic" k2="-1" k3="1"/>
<feColorMatrix type="matrix" values="0 0 0 0 0.108333 0 0 0 0 0.108333 0 0 0 0 0.108333 0 0 0 0.72 0"/>
<feBlend mode="normal" in2="shape" result="effect1_innerShadow_1433_445"/>
<feColorMatrix in="SourceAlpha" type="matrix" values="0 0 0 0 0 0 0 0 0 0 0 0 0 0 0 0 0 0 127 0" result="hardAlpha"/>
<feMorphology radius="28" operator="dilate" in="SourceAlpha" result="effect2_innerShadow_1433_445"/>
<feOffset dx="-10" dy="-26"/>
<feGaussianBlur stdDeviation="16.5"/>
<feComposite in2="hardAlpha" operator="arithmetic" k2="-1" k3="1"/>
<feColorMatrix type="matrix" values="0 0 0 0 1 0 0 0 0 1 0 0 0 0 1 0 0 0 0.1 0"/>
<feBlend mode="normal" in2="effect1_innerShadow_1433_445" result="effect2_innerShadow_1433_445"/>
<feColorMatrix in="SourceAlpha" type="matrix" values="0 0 0 0 0 0 0 0 0 0 0 0 0 0 0 0 0 0 127 0" result="hardAlpha"/>
<feOffset dx="5" dy="5"/>
<feGaussianBlur stdDeviation="2.5"/>
<feComposite in2="hardAlpha" operator="arithmetic" k2="-1" k3="1"/>
<feColorMatrix type="matrix" values="0 0 0 0 0 0 0 0 0 0 0 0 0 0 0 0 0 0 0.21 0"/>
<feBlend mode="normal" in2="effect2_innerShadow_1433_445" result="effect3_innerShadow_1433_445"/>
<feColorMatrix in="SourceAlpha" type="matrix" values="0 0 0 0 0 0 0 0 0 0 0 0 0 0 0 0 0 0 127 0" result="hardAlpha"/>
<feOffset dx="-2" dy="-2"/>
<feGaussianBlur stdDeviation="2"/>
<feComposite in2="hardAlpha" operator="arithmetic" k2="-1" k3="1"/>
<feColorMatrix type="matrix" values="0 0 0 0 0.3125 0 0 0 0 0.3125 0 0 0 0 0.3125 0 0 0 0.1 0"/>
<feBlend mode="normal" in2="effect3_innerShadow_1433_445" result="effect4_innerShadow_1433_445"/>
</filter>
<filter id="filter1_f_1433_445" x="0.682739" y="0.727661" width="139.604" height="142.789" filterUnits="userSpaceOnUse" color-interpolation-filters="sRGB">
<feFlood flood-opacity="0" result="BackgroundImageFix"/>
<feBlend mode="normal" in="SourceGraphic" in2="BackgroundImageFix" result="shape"/>
<feGaussianBlur stdDeviation="22" result="effect1_foregroundBlur_1433_445"/>
</filter>
<linearGradient id="paint0_linear_1433_445" x1="7.00001" y1="5.16393" x2="167.918" y2="197.818" gradientUnits="userSpaceOnUse">
<stop/>
<stop offset="1"/>
</linearGradient>
<radialGradient id="paint1_radial_1433_445" cx="0" cy="0" r="1" gradientUnits="userSpaceOnUse" gradientTransform="translate(27.4132 25.7687) rotate(144.127) scale(50.8343 52.5403)">
<stop stop-color="white"/>
<stop offset="1" stop-color="#8C8C8C" stop-opacity="0"/>
</radialGradient>
<linearGradient id="paint2_linear_1433_445" x1="86.371" y1="71.2473" x2="76.8907" y2="37.2273" gradientUnits="userSpaceOnUse">
<stop stop-color="#3E3E3E"/>
<stop offset="1" stop-color="#0D0D0D"/>
</linearGradient>
<radialGradient id="paint3_radial_1433_445" cx="0" cy="0" r="1" gradientUnits="userSpaceOnUse" gradientTransform="translate(73.0645 55.414) rotate(155.269) scale(14.6501 11.1759)">
<stop offset="0.135417" stop-color="white"/>
<stop offset="1" stop-color="white" stop-opacity="0.27"/>
</radialGradient>
<radialGradient id="paint4_radial_1433_445" cx="0" cy="0" r="1" gradientUnits="userSpaceOnUse" gradientTransform="translate(73.7903 55.414) rotate(158.301) scale(25.0666 15.712)">
<stop stop-color="white"/>
<stop offset="0.338542" stop-color="white"/>
<stop offset="1" stop-color="white" stop-opacity="0"/>
</radialGradient>
<linearGradient id="paint5_linear_1433_445" x1="49.5" y1="74.4286" x2="80.7146" y2="85.9943" gradientUnits="userSpaceOnUse">
<stop stop-color="#EBEBEB"/>
<stop offset="0.505161" stop-color="#9E9E9E"/>
<stop offset="0.973958" stop-color="#D9D9D9"/>
</linearGradient>
<linearGradient id="paint6_linear_1433_445" x1="49.5" y1="84.4286" x2="80.7146" y2="95.9943" gradientUnits="userSpaceOnUse">
<stop stop-color="#EBEBEB"/>
<stop offset="0.505161" stop-color="#9E9E9E"/>
<stop offset="0.973958" stop-color="#D9D9D9"/>
</linearGradient>
<linearGradient id="paint7_linear_1433_445" x1="49.5" y1="95.4286" x2="80.7146" y2="106.994" gradientUnits="userSpaceOnUse">
<stop stop-color="#EBEBEB"/>
<stop offset="0.505161" stop-color="#9E9E9E"/>
<stop offset="0.973958" stop-color="#D9D9D9"/>
</linearGradient>
</defs>
</svg>