<svg width="36" height="36" viewBox="0 0 36 36" fill="none" xmlns="http://www.w3.org/2000/svg">
<path d="M2.25 13.05C2.25 9.26965 2.25 7.37947 2.98571 5.93556C3.63285 4.66547 4.66547 3.63285 5.93556 2.98571C7.37947 2.25 9.26965 2.25 13.05 2.25H22.95C26.7304 2.25 28.6205 2.25 30.0644 2.98571C31.3345 3.63285 32.3671 4.66547 33.0143 5.93556C33.75 7.37947 33.75 9.26965 33.75 13.05V22.95C33.75 26.7304 33.75 28.6205 33.0143 30.0644C32.3671 31.3345 31.3345 32.3671 30.0644 33.0143C28.6205 33.75 26.7304 33.75 22.95 33.75H13.05C9.26965 33.75 7.37947 33.75 5.93556 33.0143C4.66547 32.3671 3.63285 31.3345 2.98571 30.0644C2.25 28.6205 2.25 26.7304 2.25 22.95V13.05Z" fill="white"/>
<path d="M26.5906 10.5075C24.9885 9.80324 23.2754 9.29141 21.4845 9C21.2645 9.3736 21.0075 9.87609 20.8304 10.2758C18.9266 10.0069 17.0402 10.0069 15.1714 10.2758C14.9943 9.87609 14.7315 9.3736 14.5096 9C12.7167 9.29141 11.0017 9.80511 9.39958 10.5112C6.1681 15.099 5.2921 19.5729 5.7301 23.9832C7.87338 25.4869 9.95048 26.4004 11.9925 26.9981C12.4967 26.3462 12.9464 25.6532 13.3338 24.9228C12.596 24.6594 11.8894 24.3344 11.2217 23.957C11.3988 23.8338 11.5721 23.7049 11.7395 23.5723C15.8119 25.3618 20.2367 25.3618 24.2605 23.5723C24.4298 23.7049 24.6031 23.8338 24.7783 23.957C24.1086 24.3362 23.4 24.6613 22.6622 24.9247C23.0496 25.6532 23.4973 26.3481 24.0035 27C26.0474 26.4023 28.1265 25.4888 30.2698 23.9832C30.7838 18.8705 29.3919 14.4377 26.5906 10.5075ZM13.8886 21.2709C12.6661 21.2709 11.6635 20.1986 11.6635 18.8929C11.6635 17.5872 12.6447 16.5131 13.8886 16.5131C15.1325 16.5131 16.135 17.5853 16.1136 18.8929C16.1156 20.1986 15.1325 21.2709 13.8886 21.2709ZM22.1114 21.2709C20.8888 21.2709 19.8862 20.1986 19.8862 18.8929C19.8862 17.5872 20.8674 16.5131 22.1114 16.5131C23.3552 16.5131 24.3578 17.5853 24.3364 18.8929C24.3364 20.1986 23.3552 21.2709 22.1114 21.2709Z" fill="#5865F2"/>
</svg>
