<svg width="117" height="116" viewBox="0 0 117 116" fill="none" xmlns="http://www.w3.org/2000/svg">
<g filter="url(#filter0_iiii_1017_113)">
<circle cx="52" cy="56" r="50" fill="url(#paint0_linear_1017_113)"/>
</g>
<g filter="url(#filter1_f_1017_113)">
<ellipse rx="23.9822" ry="23.4797" transform="matrix(0.427758 0.903893 -0.912938 0.4081 48.37 67.8068)" fill="url(#paint1_radial_1017_113)" fill-opacity="0.5"/>
</g>
<g filter="url(#filter2_ii_1017_113)">
<rect width="22" height="22" rx="5" transform="matrix(0.715374 -0.698741 0.71005 0.704152 84.4077 46.291)" fill="url(#paint2_linear_1017_113)"/>
<rect width="22" height="22" rx="5" transform="matrix(0.715374 -0.698741 0.71005 0.704152 84.4077 46.291)" fill="url(#paint3_radial_1017_113)"/>
<rect width="22" height="22" rx="5" transform="matrix(0.715374 -0.698741 0.71005 0.704152 84.4077 46.291)" fill="url(#paint4_radial_1017_113)"/>
</g>
<ellipse cx="51.7393" cy="37.2868" rx="14.3184" ry="14.2868" fill="url(#paint5_linear_1017_113)"/>
<ellipse cx="51.7393" cy="37.2868" rx="14.3184" ry="14.2868" fill="url(#paint6_radial_1017_113)"/>
<ellipse cx="51.7393" cy="37.2868" rx="14.3184" ry="14.2868" fill="url(#paint7_radial_1017_113)"/>
<path d="M76.4765 59.2678C79.2379 59.2678 81.5194 61.522 81.0553 64.2441C80.683 66.4273 80.0662 68.5673 79.2128 70.623C77.7183 74.2231 75.5278 77.4941 72.7663 80.2495C70.0049 83.0048 66.7266 85.1905 63.1186 86.6817C59.5105 88.1729 55.6435 88.9404 51.7382 88.9404C47.8329 88.9404 43.9659 88.1729 40.3579 86.6817C36.7499 85.1905 33.4716 83.0048 30.7101 80.2495C27.9487 77.4941 25.7582 74.2231 24.2637 70.623C23.4103 68.5673 22.7934 66.4273 22.4212 64.2441C21.9571 61.522 24.2386 59.2678 27 59.2678L51.7382 59.2678H76.4765Z" fill="url(#paint8_linear_1017_113)"/>
<path d="M76.4765 59.2678C79.2379 59.2678 81.5194 61.522 81.0553 64.2441C80.683 66.4273 80.0662 68.5673 79.2128 70.623C77.7183 74.2231 75.5278 77.4941 72.7663 80.2495C70.0049 83.0048 66.7266 85.1905 63.1186 86.6817C59.5105 88.1729 55.6435 88.9404 51.7382 88.9404C47.8329 88.9404 43.9659 88.1729 40.3579 86.6817C36.7499 85.1905 33.4716 83.0048 30.7101 80.2495C27.9487 77.4941 25.7582 74.2231 24.2637 70.623C23.4103 68.5673 22.7934 66.4273 22.4212 64.2441C21.9571 61.522 24.2386 59.2678 27 59.2678L51.7382 59.2678H76.4765Z" fill="url(#paint9_radial_1017_113)"/>
<path d="M76.4765 59.2678C79.2379 59.2678 81.5194 61.522 81.0553 64.2441C80.683 66.4273 80.0662 68.5673 79.2128 70.623C77.7183 74.2231 75.5278 77.4941 72.7663 80.2495C70.0049 83.0048 66.7266 85.1905 63.1186 86.6817C59.5105 88.1729 55.6435 88.9404 51.7382 88.9404C47.8329 88.9404 43.9659 88.1729 40.3579 86.6817C36.7499 85.1905 33.4716 83.0048 30.7101 80.2495C27.9487 77.4941 25.7582 74.2231 24.2637 70.623C23.4103 68.5673 22.7934 66.4273 22.4212 64.2441C21.9571 61.522 24.2386 59.2678 27 59.2678L51.7382 59.2678H76.4765Z" fill="url(#paint10_radial_1017_113)"/>
<defs>
<filter id="filter0_iiii_1017_113" x="-49" y="1" width="156" height="154" filterUnits="userSpaceOnUse" color-interpolation-filters="sRGB">
<feFlood flood-opacity="0" result="BackgroundImageFix"/>
<feBlend mode="normal" in="SourceGraphic" in2="BackgroundImageFix" result="shape"/>
<feColorMatrix in="SourceAlpha" type="matrix" values="0 0 0 0 0 0 0 0 0 0 0 0 0 0 0 0 0 0 127 0" result="hardAlpha"/>
<feMorphology radius="22" operator="erode" in="SourceAlpha" result="effect1_innerShadow_1017_113"/>
<feOffset dx="-97" dy="49"/>
<feGaussianBlur stdDeviation="14.5"/>
<feComposite in2="hardAlpha" operator="arithmetic" k2="-1" k3="1"/>
<feColorMatrix type="matrix" values="0 0 0 0 0.108333 0 0 0 0 0.108333 0 0 0 0 0.108333 0 0 0 0.72 0"/>
<feBlend mode="normal" in2="shape" result="effect1_innerShadow_1017_113"/>
<feColorMatrix in="SourceAlpha" type="matrix" values="0 0 0 0 0 0 0 0 0 0 0 0 0 0 0 0 0 0 127 0" result="hardAlpha"/>
<feMorphology radius="28" operator="dilate" in="SourceAlpha" result="effect2_innerShadow_1017_113"/>
<feOffset dx="-10" dy="-26"/>
<feGaussianBlur stdDeviation="16.5"/>
<feComposite in2="hardAlpha" operator="arithmetic" k2="-1" k3="1"/>
<feColorMatrix type="matrix" values="0 0 0 0 1 0 0 0 0 1 0 0 0 0 1 0 0 0 0.1 0"/>
<feBlend mode="normal" in2="effect1_innerShadow_1017_113" result="effect2_innerShadow_1017_113"/>
<feColorMatrix in="SourceAlpha" type="matrix" values="0 0 0 0 0 0 0 0 0 0 0 0 0 0 0 0 0 0 127 0" result="hardAlpha"/>
<feOffset dx="5" dy="5"/>
<feGaussianBlur stdDeviation="2.5"/>
<feComposite in2="hardAlpha" operator="arithmetic" k2="-1" k3="1"/>
<feColorMatrix type="matrix" values="0 0 0 0 0 0 0 0 0 0 0 0 0 0 0 0 0 0 0.21 0"/>
<feBlend mode="normal" in2="effect2_innerShadow_1017_113" result="effect3_innerShadow_1017_113"/>
<feColorMatrix in="SourceAlpha" type="matrix" values="0 0 0 0 0 0 0 0 0 0 0 0 0 0 0 0 0 0 127 0" result="hardAlpha"/>
<feOffset dx="-2" dy="-2"/>
<feGaussianBlur stdDeviation="2"/>
<feComposite in2="hardAlpha" operator="arithmetic" k2="-1" k3="1"/>
<feColorMatrix type="matrix" values="0 0 0 0 0.3125 0 0 0 0 0.3125 0 0 0 0 0.3125 0 0 0 0.1 0"/>
<feBlend mode="normal" in2="effect3_innerShadow_1017_113" result="effect4_innerShadow_1017_113"/>
</filter>
<filter id="filter1_f_1017_113" x="-19.3994" y="0.100098" width="135.539" height="135.414" filterUnits="userSpaceOnUse" color-interpolation-filters="sRGB">
<feFlood flood-opacity="0" result="BackgroundImageFix"/>
<feBlend mode="normal" in="SourceGraphic" in2="BackgroundImageFix" result="shape"/>
<feGaussianBlur stdDeviation="22" result="effect1_foregroundBlur_1017_113"/>
</filter>
<filter id="filter2_ii_1017_113" x="86.4951" y="25.9731" width="27.1846" height="33.7549" filterUnits="userSpaceOnUse" color-interpolation-filters="sRGB">
<feFlood flood-opacity="0" result="BackgroundImageFix"/>
<feBlend mode="normal" in="SourceGraphic" in2="BackgroundImageFix" result="shape"/>
<feColorMatrix in="SourceAlpha" type="matrix" values="0 0 0 0 0 0 0 0 0 0 0 0 0 0 0 0 0 0 127 0" result="hardAlpha"/>
<feOffset dy="-7"/>
<feGaussianBlur stdDeviation="33"/>
<feComposite in2="hardAlpha" operator="arithmetic" k2="-1" k3="1"/>
<feColorMatrix type="matrix" values="0 0 0 0 1 0 0 0 0 1 0 0 0 0 1 0 0 0 0.37 0"/>
<feBlend mode="normal" in2="shape" result="effect1_innerShadow_1017_113"/>
<feColorMatrix in="SourceAlpha" type="matrix" values="0 0 0 0 0 0 0 0 0 0 0 0 0 0 0 0 0 0 127 0" result="hardAlpha"/>
<feOffset dy="-7"/>
<feGaussianBlur stdDeviation="33"/>
<feComposite in2="hardAlpha" operator="arithmetic" k2="-1" k3="1"/>
<feColorMatrix type="matrix" values="0 0 0 0 1 0 0 0 0 1 0 0 0 0 1 0 0 0 0.37 0"/>
<feBlend mode="normal" in2="effect1_innerShadow_1017_113" result="effect2_innerShadow_1017_113"/>
</filter>
<linearGradient id="paint0_linear_1017_113" x1="2" y1="-2.19673" x2="136.099" y2="158.349" gradientUnits="userSpaceOnUse">
<stop/>
<stop offset="1"/>
</linearGradient>
<radialGradient id="paint1_radial_1017_113" cx="0" cy="0" r="1" gradientUnits="userSpaceOnUse" gradientTransform="translate(19.6671 11.4571) rotate(158.888) scale(31.5987 32.8507)">
<stop stop-color="white"/>
<stop offset="1" stop-color="#8C8C8C" stop-opacity="0"/>
</radialGradient>
<linearGradient id="paint2_linear_1017_113" x1="20.2258" y1="24.6022" x2="0.709675" y2="-4.96774" gradientUnits="userSpaceOnUse">
<stop stop-color="#3E3E3E"/>
<stop offset="1" stop-color="#0D0D0D"/>
</linearGradient>
<radialGradient id="paint3_radial_1017_113" cx="0" cy="0" r="1" gradientUnits="userSpaceOnUse" gradientTransform="translate(13.7204 6.26882) rotate(132.51) scale(9.62726)">
<stop offset="0.135417" stop-color="white"/>
<stop offset="1" stop-color="white" stop-opacity="0.27"/>
</radialGradient>
<radialGradient id="paint4_radial_1017_113" cx="0" cy="0" r="1" gradientUnits="userSpaceOnUse" gradientTransform="translate(14.0753 6.26882) rotate(141.491) scale(14.0574)">
<stop stop-color="white"/>
<stop offset="0.338542" stop-color="white"/>
<stop offset="1" stop-color="white" stop-opacity="0"/>
</radialGradient>
<linearGradient id="paint5_linear_1017_113" x1="63.7483" y1="54.9533" x2="38.4228" y2="16.4964" gradientUnits="userSpaceOnUse">
<stop stop-color="#3E3E3E"/>
<stop offset="1" stop-color="#0D0D0D"/>
</linearGradient>
<radialGradient id="paint6_radial_1017_113" cx="0" cy="0" r="1" gradientUnits="userSpaceOnUse" gradientTransform="translate(55.2804 31.1419) rotate(132.574) scale(12.5165 12.5189)">
<stop offset="0.135417" stop-color="white"/>
<stop offset="1" stop-color="white" stop-opacity="0.27"/>
</radialGradient>
<radialGradient id="paint7_radial_1017_113" cx="0" cy="0" r="1" gradientUnits="userSpaceOnUse" gradientTransform="translate(55.7423 31.1419) rotate(141.552) scale(18.2825 18.2733)">
<stop stop-color="white"/>
<stop offset="0.338542" stop-color="white"/>
<stop offset="1" stop-color="white" stop-opacity="0"/>
</radialGradient>
<linearGradient id="paint8_linear_1017_113" x1="76.68" y1="95.9597" x2="24.0809" y2="16.0878" gradientUnits="userSpaceOnUse">
<stop stop-color="#3E3E3E"/>
<stop offset="1" stop-color="#0D0D0D"/>
</linearGradient>
<radialGradient id="paint9_radial_1017_113" cx="0" cy="0" r="1" gradientUnits="userSpaceOnUse" gradientTransform="translate(59.0928 46.5054) rotate(132.574) scale(25.9959 26.0008)">
<stop offset="0.135417" stop-color="white"/>
<stop offset="1" stop-color="white" stop-opacity="0.27"/>
</radialGradient>
<radialGradient id="paint10_radial_1017_113" cx="0" cy="0" r="1" gradientUnits="userSpaceOnUse" gradientTransform="translate(60.0521 46.5054) rotate(141.552) scale(37.9712 37.9523)">
<stop stop-color="white"/>
<stop offset="0.338542" stop-color="white"/>
<stop offset="1" stop-color="white" stop-opacity="0"/>
</radialGradient>
</defs>
</svg>
